<svg width="630" height="250" viewBox="0 0 630 250" fill="none" xmlns="http://www.w3.org/2000/svg">
<path d="M8.4 172L21.216 141.952H6.912V148.192H3.312V138.496H25.296V142.048L12.72 172H8.4ZM44.8613 172V165.424H28.6853V161.872L42.7013 138.496H48.7013V162.064H53.5493V165.424H48.7013V172H44.8613ZM32.4773 162.064H44.8613V141.616H44.6213L32.4773 162.064Z" fill="white" fill-opacity="0.98"/>
<path d="M64.784 172L88.016 138.496H91.712L68.48 172H64.784ZM66.704 156.928C64.272 156.928 62.4 156.128 61.088 154.528C59.776 152.896 59.12 150.528 59.12 147.424C59.12 144.32 59.776 141.968 61.088 140.368C62.4 138.736 64.272 137.92 66.704 137.92C69.136 137.92 71.008 138.736 72.32 140.368C73.632 141.968 74.288 144.32 74.288 147.424C74.288 150.528 73.632 152.896 72.32 154.528C71.008 156.128 69.136 156.928 66.704 156.928ZM66.704 154.432C69.456 154.432 70.832 152.576 70.832 148.864V145.984C70.832 142.272 69.456 140.416 66.704 140.416C63.952 140.416 62.576 142.272 62.576 145.984V148.864C62.576 152.576 63.952 154.432 66.704 154.432ZM89.792 172.576C87.36 172.576 85.488 171.776 84.176 170.176C82.864 168.544 82.208 166.176 82.208 163.072C82.208 159.968 82.864 157.616 84.176 156.016C85.488 154.384 87.36 153.568 89.792 153.568C92.224 153.568 94.096 154.384 95.408 156.016C96.72 157.616 97.376 159.968 97.376 163.072C97.376 166.176 96.72 168.544 95.408 170.176C94.096 171.776 92.224 172.576 89.792 172.576ZM89.792 170.08C92.544 170.08 93.92 168.224 93.92 164.512V161.632C93.92 157.92 92.544 156.064 89.792 156.064C87.04 156.064 85.664 157.92 85.664 161.632V164.512C85.664 168.224 87.04 170.08 89.792 170.08Z" fill="#F4F8FF" fill-opacity="0.49"/>
<path d="M1.75 192.082C1.50733 192.082 1.33 192.026 1.218 191.914C1.11533 191.793 1.064 191.639 1.064 191.452V191.27C1.064 191.083 1.11533 190.934 1.218 190.822C1.33 190.701 1.50733 190.64 1.75 190.64C1.99267 190.64 2.16533 190.701 2.268 190.822C2.38 190.934 2.436 191.083 2.436 191.27V191.452C2.436 191.639 2.38 191.793 2.268 191.914C2.16533 192.026 1.99267 192.082 1.75 192.082ZM1.19 193.776H2.31V201H1.19V193.776ZM4.83 201V193.776H5.95V194.952H6.006C6.18333 194.541 6.43067 194.215 6.748 193.972C7.07467 193.729 7.50867 193.608 8.05 193.608C8.79667 193.608 9.38467 193.851 9.814 194.336C10.2527 194.812 10.472 195.489 10.472 196.366V201H9.352V196.562C9.352 195.265 8.806 194.616 7.714 194.616C7.49 194.616 7.27067 194.644 7.056 194.7C6.85067 194.756 6.664 194.84 6.496 194.952C6.328 195.064 6.19267 195.209 6.09 195.386C5.99667 195.554 5.95 195.755 5.95 195.988V201H4.83ZM22.4656 201.798C22.4656 202.545 22.1716 203.091 21.5836 203.436C21.005 203.791 20.1323 203.968 18.9656 203.968C17.8363 203.968 17.0243 203.814 16.5296 203.506C16.035 203.198 15.7876 202.759 15.7876 202.19C15.7876 201.798 15.8903 201.49 16.0956 201.266C16.301 201.051 16.581 200.893 16.9356 200.79V200.636C16.5063 200.431 16.2916 200.095 16.2916 199.628C16.2916 199.264 16.4083 198.989 16.6416 198.802C16.875 198.606 17.1736 198.461 17.5376 198.368V198.312C17.1083 198.107 16.7723 197.813 16.5296 197.43C16.2963 197.047 16.1796 196.604 16.1796 196.1C16.1796 195.736 16.245 195.4 16.3756 195.092C16.5063 194.784 16.6883 194.523 16.9216 194.308C17.1643 194.084 17.449 193.911 17.7756 193.79C18.1116 193.669 18.485 193.608 18.8956 193.608C19.409 193.608 19.8663 193.701 20.2676 193.888V193.762C20.2676 193.482 20.333 193.253 20.4636 193.076C20.5943 192.889 20.809 192.796 21.1076 192.796H22.1856V193.776H20.8136V194.238C21.075 194.462 21.2756 194.733 21.4156 195.05C21.565 195.358 21.6396 195.708 21.6396 196.1C21.6396 196.464 21.5743 196.8 21.4436 197.108C21.313 197.416 21.1263 197.682 20.8836 197.906C20.6503 198.121 20.3656 198.289 20.0296 198.41C19.6936 198.531 19.3203 198.592 18.9096 198.592C18.6763 198.592 18.443 198.569 18.2096 198.522C17.967 198.587 17.7476 198.685 17.5516 198.816C17.3556 198.937 17.2576 199.11 17.2576 199.334C17.2576 199.549 17.3603 199.693 17.5656 199.768C17.771 199.843 18.037 199.88 18.3636 199.88H19.9036C20.7996 199.88 21.4483 200.053 21.8496 200.398C22.2603 200.734 22.4656 201.201 22.4656 201.798ZM21.4156 201.882C21.4156 201.593 21.3036 201.359 21.0796 201.182C20.865 201.014 20.4776 200.93 19.9176 200.93H17.5096C17.0616 201.135 16.8376 201.462 16.8376 201.91C16.8376 202.227 16.9543 202.498 17.1876 202.722C17.4303 202.946 17.8363 203.058 18.4056 203.058H19.4416C20.067 203.058 20.5523 202.96 20.8976 202.764C21.243 202.568 21.4156 202.274 21.4156 201.882ZM18.9096 197.696C19.3856 197.696 19.7636 197.584 20.0436 197.36C20.3236 197.127 20.4636 196.772 20.4636 196.296V195.904C20.4636 195.428 20.3236 195.078 20.0436 194.854C19.7636 194.621 19.3856 194.504 18.9096 194.504C18.4336 194.504 18.0556 194.621 17.7756 194.854C17.4956 195.078 17.3556 195.428 17.3556 195.904V196.296C17.3556 196.772 17.4956 197.127 17.7756 197.36C18.0556 197.584 18.4336 197.696 18.9096 197.696ZM26.5601 201.168C26.0747 201.168 25.6314 201.079 25.2301 200.902C24.8287 200.725 24.4834 200.473 24.1941 200.146C23.9141 199.81 23.6947 199.413 23.5361 198.956C23.3774 198.489 23.2981 197.967 23.2981 197.388C23.2981 196.819 23.3774 196.301 23.5361 195.834C23.6947 195.367 23.9141 194.971 24.1941 194.644C24.4834 194.308 24.8287 194.051 25.2301 193.874C25.6314 193.697 26.0747 193.608 26.5601 193.608C27.0454 193.608 27.4841 193.697 27.8761 193.874C28.2774 194.051 28.6227 194.308 28.9121 194.644C29.2014 194.971 29.4254 195.367 29.5841 195.834C29.7427 196.301 29.8221 196.819 29.8221 197.388C29.8221 197.967 29.7427 198.489 29.5841 198.956C29.4254 199.413 29.2014 199.81 28.9121 200.146C28.6227 200.473 28.2774 200.725 27.8761 200.902C27.4841 201.079 27.0454 201.168 26.5601 201.168ZM26.5601 200.174C27.1667 200.174 27.6614 199.987 28.0441 199.614C28.4267 199.241 28.6181 198.671 28.6181 197.906V196.87C28.6181 196.105 28.4267 195.535 28.0441 195.162C27.6614 194.789 27.1667 194.602 26.5601 194.602C25.9534 194.602 25.4587 194.789 25.0761 195.162C24.6934 195.535 24.5021 196.105 24.5021 196.87V197.906C24.5021 198.671 24.6934 199.241 25.0761 199.614C25.4587 199.987 25.9534 200.174 26.5601 200.174ZM34.5341 201.168C34.0487 201.168 33.6054 201.079 33.2041 200.902C32.8027 200.725 32.4574 200.473 32.1681 200.146C31.8881 199.81 31.6687 199.413 31.5101 198.956C31.3514 198.489 31.2721 197.967 31.2721 197.388C31.2721 196.819 31.3514 196.301 31.5101 195.834C31.6687 195.367 31.8881 194.971 32.1681 194.644C32.4574 194.308 32.8027 194.051 33.2041 193.874C33.6054 193.697 34.0487 193.608 34.5341 193.608C35.0194 193.608 35.4581 193.697 35.8501 193.874C36.2514 194.051 36.5967 194.308 36.8861 194.644C37.1754 194.971 37.3994 195.367 37.5581 195.834C37.7167 196.301 37.7961 196.819 37.7961 197.388C37.7961 197.967 37.7167 198.489 37.5581 198.956C37.3994 199.413 37.1754 199.81 36.8861 200.146C36.5967 200.473 36.2514 200.725 35.8501 200.902C35.4581 201.079 35.0194 201.168 34.5341 201.168ZM34.5341 200.174C35.1407 200.174 35.6354 199.987 36.0181 199.614C36.4007 199.241 36.5921 198.671 36.5921 197.906V196.87C36.5921 196.105 36.4007 195.535 36.0181 195.162C35.6354 194.789 35.1407 194.602 34.5341 194.602C33.9274 194.602 33.4327 194.789 33.0501 195.162C32.6674 195.535 32.4761 196.105 32.4761 196.87V197.906C32.4761 198.671 32.6674 199.241 33.0501 199.614C33.4327 199.987 33.9274 200.174 34.5341 200.174ZM44.398 199.824H44.342C43.9034 200.72 43.1987 201.168 42.228 201.168C41.78 201.168 41.374 201.079 41.01 200.902C40.646 200.725 40.3334 200.473 40.072 200.146C39.82 199.819 39.624 199.423 39.484 198.956C39.3534 198.489 39.288 197.967 39.288 197.388C39.288 196.809 39.3534 196.287 39.484 195.82C39.624 195.353 39.82 194.957 40.072 194.63C40.3334 194.303 40.646 194.051 41.01 193.874C41.374 193.697 41.78 193.608 42.228 193.608C42.732 193.608 43.1614 193.72 43.516 193.944C43.88 194.159 44.1554 194.495 44.342 194.952H44.398V190.64H45.518V201H44.398V199.824ZM42.536 200.16C42.788 200.16 43.026 200.127 43.25 200.062C43.4834 199.997 43.684 199.903 43.852 199.782C44.02 199.651 44.1507 199.497 44.244 199.32C44.3467 199.133 44.398 198.923 44.398 198.69V196.002C44.398 195.806 44.3467 195.624 44.244 195.456C44.1507 195.279 44.02 195.129 43.852 195.008C43.684 194.887 43.4834 194.793 43.25 194.728C43.026 194.653 42.788 194.616 42.536 194.616C41.9014 194.616 41.402 194.817 41.038 195.218C40.674 195.61 40.492 196.128 40.492 196.772V198.004C40.492 198.648 40.674 199.171 41.038 199.572C41.402 199.964 41.9014 200.16 42.536 200.16ZM51.4877 190.64H52.6077V194.952H52.6637C52.8411 194.541 53.0884 194.215 53.4057 193.972C53.7324 193.729 54.1664 193.608 54.7077 193.608C55.4544 193.608 56.0424 193.851 56.4717 194.336C56.9104 194.812 57.1297 195.489 57.1297 196.366V201H56.0097V196.562C56.0097 195.265 55.4637 194.616 54.3717 194.616C54.1477 194.616 53.9284 194.644 53.7137 194.7C53.5084 194.756 53.3217 194.84 53.1537 194.952C52.9857 195.064 52.8504 195.209 52.7477 195.386C52.6544 195.554 52.6077 195.755 52.6077 195.988V201H51.4877V190.64ZM62.3008 201.168C61.8061 201.168 61.3581 201.079 60.9568 200.902C60.5648 200.725 60.2241 200.473 59.9348 200.146C59.6548 199.81 59.4354 199.413 59.2768 198.956C59.1274 198.489 59.0528 197.967 59.0528 197.388C59.0528 196.819 59.1274 196.301 59.2768 195.834C59.4354 195.367 59.6548 194.971 59.9348 194.644C60.2241 194.308 60.5648 194.051 60.9568 193.874C61.3581 193.697 61.8061 193.608 62.3008 193.608C62.7861 193.608 63.2201 193.697 63.6028 193.874C63.9854 194.051 64.3121 194.299 64.5828 194.616C64.8534 194.924 65.0588 195.293 65.1988 195.722C65.3481 196.151 65.4228 196.623 65.4228 197.136V197.668H60.2288V198.004C60.2288 198.312 60.2754 198.601 60.3688 198.872C60.4714 199.133 60.6114 199.362 60.7888 199.558C60.9754 199.754 61.1994 199.908 61.4608 200.02C61.7314 200.132 62.0348 200.188 62.3708 200.188C62.8281 200.188 63.2248 200.081 63.5608 199.866C63.9061 199.651 64.1721 199.343 64.3588 198.942L65.1568 199.516C64.9234 200.011 64.5594 200.412 64.0648 200.72C63.5701 201.019 62.9821 201.168 62.3008 201.168ZM62.3008 194.546C61.9928 194.546 61.7128 194.602 61.4608 194.714C61.2088 194.817 60.9894 194.966 60.8028 195.162C60.6254 195.358 60.4854 195.591 60.3828 195.862C60.2801 196.123 60.2288 196.413 60.2288 196.73V196.828H64.2188V196.674C64.2188 196.03 64.0414 195.517 63.6868 195.134C63.3414 194.742 62.8794 194.546 62.3008 194.546ZM72.6584 201C72.2384 201 71.935 200.888 71.7484 200.664C71.571 200.44 71.459 200.16 71.4124 199.824H71.3424C71.1837 200.272 70.9224 200.608 70.5584 200.832C70.1944 201.056 69.7604 201.168 69.2564 201.168C68.491 201.168 67.8937 200.972 67.4644 200.58C67.0444 200.188 66.8344 199.656 66.8344 198.984C66.8344 198.303 67.0817 197.78 67.5764 197.416C68.0804 197.052 68.8597 196.87 69.9144 196.87H71.3424V196.156C71.3424 195.643 71.2024 195.251 70.9224 194.98C70.6424 194.709 70.213 194.574 69.6344 194.574C69.1957 194.574 68.827 194.672 68.5284 194.868C68.239 195.064 67.9964 195.325 67.8004 195.652L67.1284 195.022C67.3244 194.63 67.637 194.299 68.0664 194.028C68.4957 193.748 69.037 193.608 69.6904 193.608C70.5677 193.608 71.249 193.823 71.7344 194.252C72.2197 194.681 72.4624 195.279 72.4624 196.044V200.02H73.2884V201H72.6584ZM69.4384 200.216C69.7184 200.216 69.975 200.183 70.2084 200.118C70.4417 200.053 70.6424 199.959 70.8104 199.838C70.9784 199.717 71.109 199.577 71.2024 199.418C71.2957 199.259 71.3424 199.087 71.3424 198.9V197.71H69.8584C69.2144 197.71 68.743 197.803 68.4444 197.99C68.155 198.177 68.0104 198.447 68.0104 198.802V199.096C68.0104 199.451 68.1364 199.726 68.3884 199.922C68.6497 200.118 68.9997 200.216 69.4384 200.216ZM76.2169 201C75.8249 201 75.5262 200.893 75.3209 200.678C75.1249 200.454 75.0269 200.174 75.0269 199.838V190.64H76.1469V200.02H77.2109V201H76.2169ZM80.509 201C80.117 201 79.8183 200.893 79.613 200.678C79.417 200.454 79.319 200.165 79.319 199.81V194.756H78.129V193.776H78.801C79.0436 193.776 79.207 193.729 79.291 193.636C79.3843 193.533 79.431 193.361 79.431 193.118V191.774H80.439V193.776H82.021V194.756H80.439V200.02H81.909V201H80.509ZM83.9612 190.64H85.0812V194.952H85.1372C85.3145 194.541 85.5618 194.215 85.8792 193.972C86.2058 193.729 86.6398 193.608 87.1812 193.608C87.9278 193.608 88.5158 193.851 88.9452 194.336C89.3838 194.812 89.6032 195.489 89.6032 196.366V201H88.4832V196.562C88.4832 195.265 87.9372 194.616 86.8452 194.616C86.6212 194.616 86.4018 194.644 86.1872 194.7C85.9818 194.756 85.7952 194.84 85.6272 194.952C85.4592 195.064 85.3238 195.209 85.2212 195.386C85.1278 195.554 85.0812 195.755 85.0812 195.988V201H83.9612V190.64Z" fill="#F9FBFF" fill-opacity="0.67"/>
<path d="M7.462 238.812C7.462 239.54 7.35467 240.226 7.14 240.87C6.92533 241.505 6.64533 242.088 6.3 242.62C5.964 243.143 5.59067 243.609 5.18 244.02C4.76933 244.421 4.368 244.748 3.976 245H2.464C2.98667 244.617 3.45333 244.244 3.864 243.88C4.27467 243.516 4.634 243.138 4.942 242.746C5.25 242.345 5.51133 241.92 5.726 241.472C5.94067 241.015 6.11333 240.501 6.244 239.932L6.174 239.904C5.94067 240.305 5.63733 240.641 5.264 240.912C4.9 241.173 4.41933 241.304 3.822 241.304C3.402 241.304 3.01467 241.234 2.66 241.094C2.30533 240.954 2.002 240.753 1.75 240.492C1.498 240.231 1.29733 239.918 1.148 239.554C1.008 239.181 0.938 238.761 0.938 238.294C0.938 237.818 1.01267 237.384 1.162 236.992C1.32067 236.591 1.54 236.25 1.82 235.97C2.10933 235.681 2.45 235.457 2.842 235.298C3.24333 235.139 3.69133 235.06 4.186 235.06C4.69 235.06 5.14267 235.149 5.544 235.326C5.95467 235.494 6.3 235.741 6.58 236.068C6.86933 236.385 7.08867 236.777 7.238 237.244C7.38733 237.711 7.462 238.233 7.462 238.812ZM4.2 240.31C4.844 240.31 5.34333 240.133 5.698 239.778C6.062 239.423 6.244 238.915 6.244 238.252V238.14C6.244 237.477 6.062 236.969 5.698 236.614C5.34333 236.259 4.844 236.082 4.2 236.082C3.556 236.082 3.052 236.259 2.688 236.614C2.33333 236.969 2.156 237.477 2.156 238.14V238.252C2.156 238.915 2.33333 239.423 2.688 239.778C3.052 240.133 3.556 240.31 4.2 240.31ZM10.4385 245.168C10.1399 245.168 9.92053 245.093 9.78053 244.944C9.64986 244.795 9.58453 244.599 9.58453 244.356V244.174C9.58453 243.931 9.64986 243.735 9.78053 243.586C9.92053 243.437 10.1399 243.362 10.4385 243.362C10.7372 243.362 10.9519 243.437 11.0825 243.586C11.2225 243.735 11.2925 243.931 11.2925 244.174V244.356C11.2925 244.599 11.2225 244.795 11.0825 244.944C10.9519 245.093 10.7372 245.168 10.4385 245.168ZM19.461 236.264H15.177L14.897 239.988H14.995C15.2283 239.661 15.4897 239.4 15.779 239.204C16.0777 239.008 16.4837 238.91 16.997 238.91C17.417 238.91 17.8043 238.98 18.159 239.12C18.5137 239.26 18.8217 239.461 19.083 239.722C19.3443 239.974 19.545 240.287 19.685 240.66C19.8343 241.033 19.909 241.458 19.909 241.934C19.909 242.41 19.8343 242.849 19.685 243.25C19.5357 243.642 19.3163 243.983 19.027 244.272C18.747 244.552 18.4017 244.771 17.991 244.93C17.5897 245.089 17.1323 245.168 16.619 245.168C16.2083 245.168 15.8443 245.121 15.527 245.028C15.219 244.935 14.9437 244.809 14.701 244.65C14.4583 244.491 14.2437 244.314 14.057 244.118C13.8797 243.922 13.7163 243.717 13.567 243.502L14.449 242.83C14.5703 243.026 14.6963 243.203 14.827 243.362C14.967 243.521 15.1163 243.656 15.275 243.768C15.443 243.88 15.6343 243.969 15.849 244.034C16.0637 244.09 16.3203 244.118 16.619 244.118C17.291 244.118 17.7997 243.941 18.145 243.586C18.4903 243.231 18.663 242.732 18.663 242.088V241.948C18.663 241.304 18.4903 240.805 18.145 240.45C17.7997 240.095 17.291 239.918 16.619 239.918C16.171 239.918 15.8163 240.002 15.555 240.17C15.303 240.329 15.0743 240.52 14.869 240.744L13.875 240.604L14.225 235.228H19.461V236.264ZM22.2135 234.64H23.3335V241.206H23.3895L24.4955 239.974L26.5395 237.776H27.8975L25.2235 240.632L28.1635 245H26.8055L24.4115 241.318L23.3335 242.424V245H22.2135V234.64Z" fill="white" fill-opacity="0.98"/>
<path d="M36.92 245.168C36.4347 245.168 35.9913 245.079 35.59 244.902C35.1887 244.725 34.8433 244.473 34.554 244.146C34.274 243.81 34.0547 243.413 33.896 242.956C33.7373 242.489 33.658 241.967 33.658 241.388C33.658 240.819 33.7373 240.301 33.896 239.834C34.0547 239.367 34.274 238.971 34.554 238.644C34.8433 238.308 35.1887 238.051 35.59 237.874C35.9913 237.697 36.4347 237.608 36.92 237.608C37.4053 237.608 37.844 237.697 38.236 237.874C38.6373 238.051 38.9827 238.308 39.272 238.644C39.5613 238.971 39.7853 239.367 39.944 239.834C40.1027 240.301 40.182 240.819 40.182 241.388C40.182 241.967 40.1027 242.489 39.944 242.956C39.7853 243.413 39.5613 243.81 39.272 244.146C38.9827 244.473 38.6373 244.725 38.236 244.902C37.844 245.079 37.4053 245.168 36.92 245.168ZM36.92 244.174C37.5267 244.174 38.0213 243.987 38.404 243.614C38.7867 243.241 38.978 242.671 38.978 241.906V240.87C38.978 240.105 38.7867 239.535 38.404 239.162C38.0213 238.789 37.5267 238.602 36.92 238.602C36.3133 238.602 35.8187 238.789 35.436 239.162C35.0533 239.535 34.862 240.105 34.862 240.87V241.906C34.862 242.671 35.0533 243.241 35.436 243.614C35.8187 243.987 36.3133 244.174 36.92 244.174ZM42.474 238.756H41.298V237.776H42.474V236.32C42.474 235.816 42.6046 235.41 42.866 235.102C43.1273 234.794 43.524 234.64 44.056 234.64H45.148V235.62H43.594V237.776H45.148V238.756H43.594V245H42.474V238.756ZM50.2516 245V243.964H52.9816V236.096H52.8836L50.4196 238.392L49.7336 237.65L52.3236 235.228H54.1576V243.964H56.6776V245H50.2516ZM61.2081 239.372C61.8708 239.372 62.3655 239.223 62.6921 238.924C63.0281 238.616 63.1961 238.224 63.1961 237.748V237.65C63.1961 237.137 63.0328 236.754 62.7061 236.502C62.3888 236.241 61.9688 236.11 61.4461 236.11C60.9421 236.11 60.5315 236.222 60.2141 236.446C59.8968 236.661 59.6355 236.955 59.4301 237.328L58.5621 236.656C58.6835 236.46 58.8281 236.269 58.9961 236.082C59.1735 235.886 59.3788 235.713 59.6121 235.564C59.8455 235.415 60.1161 235.293 60.4241 235.2C60.7321 235.107 61.0821 235.06 61.4741 235.06C61.8848 235.06 62.2721 235.116 62.6361 235.228C63.0001 235.331 63.3128 235.489 63.5741 235.704C63.8448 235.909 64.0548 236.166 64.2041 236.474C64.3628 236.782 64.4421 237.132 64.4421 237.524C64.4421 237.841 64.3908 238.126 64.2881 238.378C64.1948 238.63 64.0641 238.849 63.8961 239.036C63.7281 239.223 63.5275 239.381 63.2941 239.512C63.0701 239.643 62.8275 239.741 62.5661 239.806V239.862C62.8275 239.918 63.0795 240.011 63.3221 240.142C63.5741 240.263 63.7935 240.427 63.9801 240.632C64.1761 240.828 64.3301 241.071 64.4421 241.36C64.5635 241.64 64.6241 241.962 64.6241 242.326C64.6241 242.746 64.5448 243.133 64.3861 243.488C64.2275 243.833 64.0035 244.132 63.7141 244.384C63.4248 244.627 63.0748 244.818 62.6641 244.958C62.2535 245.098 61.8008 245.168 61.3061 245.168C60.8861 245.168 60.5128 245.121 60.1861 245.028C59.8595 244.935 59.5701 244.809 59.3181 244.65C59.0661 244.491 58.8421 244.314 58.6461 244.118C58.4595 243.922 58.2915 243.717 58.1421 243.502L59.0241 242.83C59.1455 243.026 59.2761 243.203 59.4161 243.362C59.5655 243.521 59.7288 243.656 59.9061 243.768C60.0835 243.88 60.2841 243.969 60.5081 244.034C60.7321 244.09 60.9935 244.118 61.2921 244.118C61.9828 244.118 62.5055 243.964 62.8601 243.656C63.2148 243.339 63.3921 242.891 63.3921 242.312V242.2C63.3921 241.621 63.2148 241.178 62.8601 240.87C62.5055 240.553 61.9828 240.394 61.2921 240.394H60.1441V239.372H61.2081ZM67.9927 245.168C67.694 245.168 67.4747 245.093 67.3347 244.944C67.204 244.795 67.1387 244.599 67.1387 244.356V244.174C67.1387 243.931 67.204 243.735 67.3347 243.586C67.4747 243.437 67.694 243.362 67.9927 243.362C68.2913 243.362 68.506 243.437 68.6367 243.586C68.7767 243.735 68.8467 243.931 68.8467 244.174V244.356C68.8467 244.599 68.7767 244.795 68.6367 244.944C68.506 245.093 68.2913 245.168 67.9927 245.168ZM75.2931 245V243.082H70.5751V242.046L74.6631 235.228H76.4131V242.102H77.8271V243.082H76.4131V245H75.2931ZM71.6811 242.102H75.2931V236.138H75.2231L71.6811 242.102ZM79.7677 234.64H80.8877V241.206H80.9437L82.0497 239.974L84.0937 237.776H85.4517L82.7777 240.632L85.7177 245H84.3597L81.9657 241.318L80.8877 242.424V245H79.7677V234.64ZM90.7391 234.64H91.8591V238.952H91.9151C92.0924 238.541 92.3397 238.215 92.6571 237.972C92.9837 237.729 93.4177 237.608 93.9591 237.608C94.7057 237.608 95.2937 237.851 95.7231 238.336C96.1617 238.812 96.3811 239.489 96.3811 240.366V245H95.2611V240.562C95.2611 239.265 94.7151 238.616 93.6231 238.616C93.3991 238.616 93.1797 238.644 92.9651 238.7C92.7597 238.756 92.5731 238.84 92.4051 238.952C92.2371 239.064 92.1017 239.209 91.9991 239.386C91.9057 239.554 91.8591 239.755 91.8591 239.988V245H90.7391V234.64ZM104.086 245C103.666 245 103.363 244.888 103.176 244.664C102.999 244.44 102.887 244.16 102.84 243.824H102.77C102.611 244.272 102.35 244.608 101.986 244.832C101.622 245.056 101.188 245.168 100.684 245.168C99.9188 245.168 99.3214 244.972 98.8921 244.58C98.4721 244.188 98.2621 243.656 98.2621 242.984C98.2621 242.303 98.5094 241.78 99.0041 241.416C99.5081 241.052 100.287 240.87 101.342 240.87H102.77V240.156C102.77 239.643 102.63 239.251 102.35 238.98C102.07 238.709 101.641 238.574 101.062 238.574C100.623 238.574 100.255 238.672 99.9561 238.868C99.6668 239.064 99.4241 239.325 99.2281 239.652L98.5561 239.022C98.7521 238.63 99.0648 238.299 99.4941 238.028C99.9234 237.748 100.465 237.608 101.118 237.608C101.995 237.608 102.677 237.823 103.162 238.252C103.647 238.681 103.89 239.279 103.89 240.044V244.02H104.716V245H104.086ZM100.866 244.216C101.146 244.216 101.403 244.183 101.636 244.118C101.869 244.053 102.07 243.959 102.238 243.838C102.406 243.717 102.537 243.577 102.63 243.418C102.723 243.259 102.77 243.087 102.77 242.9V241.71H101.286C100.642 241.71 100.171 241.803 99.8721 241.99C99.5828 242.177 99.4381 242.447 99.4381 242.802V243.096C99.4381 243.451 99.5641 243.726 99.8161 243.922C100.077 244.118 100.427 244.216 100.866 244.216Z" fill="#F9FBFF" fill-opacity="0.67"/>
<path d="M218.49 167.872C219.152 167.872 219.647 167.723 219.974 167.424C220.31 167.116 220.478 166.724 220.478 166.248V166.15C220.478 165.637 220.314 165.254 219.988 165.002C219.67 164.741 219.25 164.61 218.728 164.61C218.224 164.61 217.813 164.722 217.496 164.946C217.178 165.161 216.917 165.455 216.712 165.828L215.844 165.156C215.965 164.96 216.11 164.769 216.278 164.582C216.455 164.386 216.66 164.213 216.894 164.064C217.127 163.915 217.398 163.793 217.706 163.7C218.014 163.607 218.364 163.56 218.756 163.56C219.166 163.56 219.554 163.616 219.918 163.728C220.282 163.831 220.594 163.989 220.856 164.204C221.126 164.409 221.336 164.666 221.486 164.974C221.644 165.282 221.724 165.632 221.724 166.024C221.724 166.341 221.672 166.626 221.57 166.878C221.476 167.13 221.346 167.349 221.178 167.536C221.01 167.723 220.809 167.881 220.576 168.012C220.352 168.143 220.109 168.241 219.848 168.306V168.362C220.109 168.418 220.361 168.511 220.604 168.642C220.856 168.763 221.075 168.927 221.262 169.132C221.458 169.328 221.612 169.571 221.724 169.86C221.845 170.14 221.906 170.462 221.906 170.826C221.906 171.246 221.826 171.633 221.668 171.988C221.509 172.333 221.285 172.632 220.996 172.884C220.706 173.127 220.356 173.318 219.946 173.458C219.535 173.598 219.082 173.668 218.588 173.668C218.168 173.668 217.794 173.621 217.468 173.528C217.141 173.435 216.852 173.309 216.6 173.15C216.348 172.991 216.124 172.814 215.928 172.618C215.741 172.422 215.573 172.217 215.424 172.002L216.306 171.33C216.427 171.526 216.558 171.703 216.698 171.862C216.847 172.021 217.01 172.156 217.188 172.268C217.365 172.38 217.566 172.469 217.79 172.534C218.014 172.59 218.275 172.618 218.574 172.618C219.264 172.618 219.787 172.464 220.142 172.156C220.496 171.839 220.674 171.391 220.674 170.812V170.7C220.674 170.121 220.496 169.678 220.142 169.37C219.787 169.053 219.264 168.894 218.574 168.894H217.426V167.872H218.49Z" fill="#F9FBFF" fill-opacity="0.67"/>
<rect x="175.33" y="186.5" width="86.8" height="10" rx="4" fill="#FF6B6B"/>
<path d="M200.328 219.668C199.049 219.668 198.046 219.239 197.318 218.38C196.59 217.512 196.226 216.257 196.226 214.614C196.226 213.793 196.319 213.069 196.506 212.444C196.693 211.819 196.963 211.291 197.318 210.862C197.673 210.433 198.102 210.111 198.606 209.896C199.119 209.672 199.693 209.56 200.328 209.56C201.177 209.56 201.887 209.747 202.456 210.12C203.035 210.493 203.487 211.044 203.814 211.772L202.484 212.5C202.316 212.033 202.055 211.665 201.7 211.394C201.355 211.114 200.897 210.974 200.328 210.974C199.572 210.974 198.979 211.231 198.55 211.744C198.121 212.257 197.906 212.967 197.906 213.872V215.356C197.906 216.261 198.121 216.971 198.55 217.484C198.979 217.997 199.572 218.254 200.328 218.254C200.916 218.254 201.392 218.105 201.756 217.806C202.129 217.498 202.405 217.106 202.582 216.63L203.856 217.4C203.529 218.109 203.072 218.665 202.484 219.066C201.896 219.467 201.177 219.668 200.328 219.668ZM205.561 219.5V212.22H207.087V213.62H207.157C207.26 213.247 207.474 212.92 207.801 212.64C208.128 212.36 208.58 212.22 209.159 212.22H209.565V213.69H208.963C208.356 213.69 207.89 213.788 207.563 213.984C207.246 214.18 207.087 214.469 207.087 214.852V219.5H205.561ZM211.83 210.918C211.513 210.918 211.28 210.843 211.13 210.694C210.99 210.545 210.92 210.353 210.92 210.12V209.882C210.92 209.649 210.99 209.457 211.13 209.308C211.28 209.159 211.513 209.084 211.83 209.084C212.148 209.084 212.376 209.159 212.516 209.308C212.656 209.457 212.726 209.649 212.726 209.882V210.12C212.726 210.353 212.656 210.545 212.516 210.694C212.376 210.843 212.148 210.918 211.83 210.918ZM211.06 212.22H212.586V219.5H211.06V212.22ZM216.921 219.5C216.389 219.5 215.988 219.365 215.717 219.094C215.447 218.814 215.311 218.422 215.311 217.918V213.466H214.177V212.22H214.793C215.045 212.22 215.218 212.164 215.311 212.052C215.414 211.94 215.465 211.758 215.465 211.506V210.232H216.837V212.22H218.363V213.466H216.837V218.254H218.251V219.5H216.921ZM220.929 210.918C220.611 210.918 220.378 210.843 220.229 210.694C220.089 210.545 220.019 210.353 220.019 210.12V209.882C220.019 209.649 220.089 209.457 220.229 209.308C220.378 209.159 220.611 209.084 220.929 209.084C221.246 209.084 221.475 209.159 221.615 209.308C221.755 209.457 221.825 209.649 221.825 209.882V210.12C221.825 210.353 221.755 210.545 221.615 210.694C221.475 210.843 221.246 210.918 220.929 210.918ZM220.159 212.22H221.685V219.5H220.159V212.22ZM226.818 219.668C226.295 219.668 225.828 219.579 225.418 219.402C225.007 219.225 224.662 218.973 224.382 218.646C224.102 218.31 223.887 217.909 223.738 217.442C223.588 216.966 223.514 216.439 223.514 215.86C223.514 215.281 223.588 214.759 223.738 214.292C223.887 213.816 224.102 213.415 224.382 213.088C224.662 212.752 225.007 212.495 225.418 212.318C225.828 212.141 226.295 212.052 226.818 212.052C227.546 212.052 228.143 212.215 228.61 212.542C229.076 212.869 229.417 213.303 229.632 213.844L228.372 214.432C228.269 214.096 228.087 213.83 227.826 213.634C227.574 213.429 227.238 213.326 226.818 213.326C226.258 213.326 225.833 213.503 225.544 213.858C225.264 214.203 225.124 214.656 225.124 215.216V216.518C225.124 217.078 225.264 217.535 225.544 217.89C225.833 218.235 226.258 218.408 226.818 218.408C227.266 218.408 227.62 218.301 227.882 218.086C228.152 217.862 228.367 217.568 228.526 217.204L229.688 217.82C229.445 218.417 229.081 218.875 228.596 219.192C228.11 219.509 227.518 219.668 226.818 219.668ZM236.614 219.5C236.213 219.5 235.905 219.388 235.69 219.164C235.476 218.931 235.345 218.637 235.298 218.282H235.228C235.088 218.739 234.832 219.085 234.458 219.318C234.085 219.551 233.632 219.668 233.1 219.668C232.344 219.668 231.761 219.472 231.35 219.08C230.949 218.688 230.748 218.161 230.748 217.498C230.748 216.77 231.01 216.224 231.532 215.86C232.064 215.496 232.839 215.314 233.856 215.314H235.172V214.698C235.172 214.25 235.051 213.905 234.808 213.662C234.566 213.419 234.188 213.298 233.674 213.298C233.245 213.298 232.895 213.391 232.624 213.578C232.354 213.765 232.125 214.003 231.938 214.292L231.028 213.466C231.271 213.055 231.612 212.719 232.05 212.458C232.489 212.187 233.063 212.052 233.772 212.052C234.715 212.052 235.438 212.271 235.942 212.71C236.446 213.149 236.698 213.779 236.698 214.6V218.254H237.468V219.5H236.614ZM233.534 218.506C234.01 218.506 234.402 218.403 234.71 218.198C235.018 217.983 235.172 217.699 235.172 217.344V216.294H233.884C232.83 216.294 232.302 216.621 232.302 217.274V217.526C232.302 217.853 232.41 218.1 232.624 218.268C232.848 218.427 233.152 218.506 233.534 218.506ZM240.658 219.5C240.135 219.5 239.743 219.369 239.482 219.108C239.23 218.837 239.104 218.464 239.104 217.988V209.14H240.63V218.254H241.638V219.5H240.658Z" fill="white" fill-opacity="0.98"/>
<path d="M204.43 243.668C203.263 243.668 202.409 243.225 201.868 242.338C201.336 241.451 201.07 240.21 201.07 238.614C201.07 237.018 201.336 235.777 201.868 234.89C202.409 234.003 203.263 233.56 204.43 233.56C205.597 233.56 206.446 234.003 206.978 234.89C207.519 235.777 207.79 237.018 207.79 238.614C207.79 240.21 207.519 241.451 206.978 242.338C206.446 243.225 205.597 243.668 204.43 243.668ZM204.43 242.646C204.813 242.646 205.139 242.567 205.41 242.408C205.681 242.249 205.9 242.025 206.068 241.736C206.236 241.447 206.357 241.106 206.432 240.714C206.516 240.322 206.558 239.888 206.558 239.412V237.816C206.558 237.34 206.516 236.906 206.432 236.514C206.357 236.122 206.236 235.781 206.068 235.492C205.9 235.203 205.681 234.979 205.41 234.82C205.139 234.661 204.813 234.582 204.43 234.582C204.047 234.582 203.721 234.661 203.45 234.82C203.179 234.979 202.96 235.203 202.792 235.492C202.624 235.781 202.498 236.122 202.414 236.514C202.339 236.906 202.302 237.34 202.302 237.816V239.412C202.302 239.888 202.339 240.322 202.414 240.714C202.498 241.106 202.624 241.447 202.792 241.736C202.96 242.025 203.179 242.249 203.45 242.408C203.721 242.567 204.047 242.646 204.43 242.646ZM214.999 243.5C214.607 243.5 214.308 243.393 214.103 243.178C213.907 242.954 213.809 242.665 213.809 242.31V237.256H212.619V236.276H213.291C213.534 236.276 213.697 236.229 213.781 236.136C213.874 236.033 213.921 235.861 213.921 235.618V234.274H214.929V236.276H216.511V237.256H214.929V242.52H216.399V243.5H214.999ZM221.127 243.668C220.641 243.668 220.198 243.579 219.797 243.402C219.395 243.225 219.05 242.973 218.761 242.646C218.481 242.31 218.261 241.913 218.103 241.456C217.944 240.989 217.865 240.467 217.865 239.888C217.865 239.319 217.944 238.801 218.103 238.334C218.261 237.867 218.481 237.471 218.761 237.144C219.05 236.808 219.395 236.551 219.797 236.374C220.198 236.197 220.641 236.108 221.127 236.108C221.612 236.108 222.051 236.197 222.443 236.374C222.844 236.551 223.189 236.808 223.479 237.144C223.768 237.471 223.992 237.867 224.151 238.334C224.309 238.801 224.389 239.319 224.389 239.888C224.389 240.467 224.309 240.989 224.151 241.456C223.992 241.913 223.768 242.31 223.479 242.646C223.189 242.973 222.844 243.225 222.443 243.402C222.051 243.579 221.612 243.668 221.127 243.668ZM221.127 242.674C221.733 242.674 222.228 242.487 222.611 242.114C222.993 241.741 223.185 241.171 223.185 240.406V239.37C223.185 238.605 222.993 238.035 222.611 237.662C222.228 237.289 221.733 237.102 221.127 237.102C220.52 237.102 220.025 237.289 219.643 237.662C219.26 238.035 219.069 238.605 219.069 239.37V240.406C219.069 241.171 219.26 241.741 219.643 242.114C220.025 242.487 220.52 242.674 221.127 242.674ZM236.091 243.5H229.679V242.296L232.871 239.356C233.329 238.936 233.711 238.493 234.019 238.026C234.327 237.55 234.481 237.074 234.481 236.598V236.43C234.481 235.889 234.332 235.45 234.033 235.114C233.735 234.778 233.282 234.61 232.675 234.61C232.377 234.61 232.115 234.652 231.891 234.736C231.667 234.82 231.471 234.937 231.303 235.086C231.145 235.235 231.009 235.413 230.897 235.618C230.795 235.814 230.711 236.029 230.645 236.262L229.595 235.856C229.689 235.567 229.815 235.287 229.973 235.016C230.141 234.736 230.347 234.489 230.589 234.274C230.841 234.059 231.14 233.887 231.485 233.756C231.84 233.625 232.255 233.56 232.731 233.56C233.207 233.56 233.632 233.63 234.005 233.77C234.379 233.91 234.691 234.106 234.943 234.358C235.195 234.61 235.387 234.909 235.517 235.254C235.657 235.599 235.727 235.982 235.727 236.402C235.727 236.785 235.671 237.139 235.559 237.466C235.457 237.793 235.312 238.105 235.125 238.404C234.939 238.693 234.71 238.978 234.439 239.258C234.178 239.538 233.893 239.818 233.585 240.098L230.953 242.464H236.091V243.5Z" fill="#F9FBFF" fill-opacity="0.67"/>
<path d="M314.092 147.312C314.092 148.04 313.985 148.726 313.77 149.37C313.556 150.005 313.276 150.588 312.93 151.12C312.594 151.643 312.221 152.109 311.81 152.52C311.4 152.921 310.998 153.248 310.606 153.5H309.094C309.617 153.117 310.084 152.744 310.494 152.38C310.905 152.016 311.264 151.638 311.572 151.246C311.88 150.845 312.142 150.42 312.356 149.972C312.571 149.515 312.744 149.001 312.874 148.432L312.804 148.404C312.571 148.805 312.268 149.141 311.894 149.412C311.53 149.673 311.05 149.804 310.452 149.804C310.032 149.804 309.645 149.734 309.29 149.594C308.936 149.454 308.632 149.253 308.38 148.992C308.128 148.731 307.928 148.418 307.778 148.054C307.638 147.681 307.568 147.261 307.568 146.794C307.568 146.318 307.643 145.884 307.792 145.492C307.951 145.091 308.17 144.75 308.45 144.47C308.74 144.181 309.08 143.957 309.472 143.798C309.874 143.639 310.322 143.56 310.816 143.56C311.32 143.56 311.773 143.649 312.174 143.826C312.585 143.994 312.93 144.241 313.21 144.568C313.5 144.885 313.719 145.277 313.868 145.744C314.018 146.211 314.092 146.733 314.092 147.312ZM310.83 148.81C311.474 148.81 311.974 148.633 312.328 148.278C312.692 147.923 312.874 147.415 312.874 146.752V146.64C312.874 145.977 312.692 145.469 312.328 145.114C311.974 144.759 311.474 144.582 310.83 144.582C310.186 144.582 309.682 144.759 309.318 145.114C308.964 145.469 308.786 145.977 308.786 146.64V146.752C308.786 147.415 308.964 147.923 309.318 148.278C309.682 148.633 310.186 148.81 310.83 148.81Z" fill="#F9FBFF" fill-opacity="0.67"/>
<rect x="267.13" y="166.5" width="86.79" height="30" rx="4" fill="#F97316"/>
<path d="M280.17 209.728H283.628C284.253 209.728 284.818 209.831 285.322 210.036C285.835 210.241 286.269 210.549 286.624 210.96C286.988 211.361 287.268 211.87 287.464 212.486C287.66 213.093 287.758 213.802 287.758 214.614C287.758 215.426 287.66 216.14 287.464 216.756C287.268 217.363 286.988 217.871 286.624 218.282C286.269 218.683 285.835 218.987 285.322 219.192C284.818 219.397 284.253 219.5 283.628 219.5H280.17V209.728ZM283.628 218.1C284.356 218.1 284.944 217.871 285.392 217.414C285.84 216.957 286.064 216.285 286.064 215.398V213.83C286.064 212.943 285.84 212.271 285.392 211.814C284.944 211.357 284.356 211.128 283.628 211.128H281.752V218.1H283.628ZM292.61 219.668C292.088 219.668 291.621 219.579 291.21 219.402C290.8 219.225 290.45 218.973 290.16 218.646C289.871 218.31 289.647 217.909 289.488 217.442C289.339 216.966 289.264 216.439 289.264 215.86C289.264 215.281 289.339 214.759 289.488 214.292C289.647 213.816 289.871 213.415 290.16 213.088C290.45 212.752 290.8 212.495 291.21 212.318C291.621 212.141 292.088 212.052 292.61 212.052C293.142 212.052 293.609 212.145 294.01 212.332C294.421 212.519 294.762 212.78 295.032 213.116C295.303 213.443 295.504 213.825 295.634 214.264C295.774 214.703 295.844 215.174 295.844 215.678V216.252H290.846V216.49C290.846 217.05 291.01 217.512 291.336 217.876C291.672 218.231 292.148 218.408 292.764 218.408C293.212 218.408 293.59 218.31 293.898 218.114C294.206 217.918 294.468 217.652 294.682 217.316L295.578 218.198C295.308 218.646 294.916 219.005 294.402 219.276C293.889 219.537 293.292 219.668 292.61 219.668ZM292.61 213.242C292.349 213.242 292.106 213.289 291.882 213.382C291.668 213.475 291.481 213.606 291.322 213.774C291.173 213.942 291.056 214.143 290.972 214.376C290.888 214.609 290.846 214.866 290.846 215.146V215.244H294.234V215.104C294.234 214.544 294.09 214.096 293.8 213.76C293.511 213.415 293.114 213.242 292.61 213.242ZM304.058 220.186C304.058 220.942 303.768 221.511 303.19 221.894C302.611 222.277 301.668 222.468 300.362 222.468C299.764 222.468 299.256 222.426 298.836 222.342C298.425 222.267 298.084 222.155 297.814 222.006C297.552 221.857 297.361 221.675 297.24 221.46C297.118 221.245 297.058 220.998 297.058 220.718C297.058 220.317 297.165 220.004 297.38 219.78C297.604 219.556 297.912 219.402 298.304 219.318V219.164C297.753 218.987 297.478 218.613 297.478 218.044C297.478 217.671 297.604 217.386 297.856 217.19C298.108 216.985 298.411 216.84 298.766 216.756V216.7C298.336 216.495 298.005 216.21 297.772 215.846C297.548 215.473 297.436 215.039 297.436 214.544C297.436 213.797 297.683 213.195 298.178 212.738C298.682 212.281 299.4 212.052 300.334 212.052C300.847 212.052 301.286 212.127 301.65 212.276V212.08C301.65 211.753 301.724 211.501 301.874 211.324C302.032 211.137 302.275 211.044 302.602 211.044H303.722V212.276H302.238V212.57C302.564 212.785 302.816 213.065 302.994 213.41C303.171 213.746 303.26 214.124 303.26 214.544C303.26 215.281 303.008 215.879 302.504 216.336C302 216.784 301.281 217.008 300.348 217.008C299.993 217.008 299.676 216.971 299.396 216.896C299.209 216.961 299.046 217.055 298.906 217.176C298.766 217.288 298.696 217.437 298.696 217.624C298.696 217.82 298.784 217.96 298.962 218.044C299.139 218.128 299.391 218.17 299.718 218.17H301.51C302.406 218.17 303.054 218.352 303.456 218.716C303.857 219.071 304.058 219.561 304.058 220.186ZM302.63 220.354C302.63 220.102 302.532 219.901 302.336 219.752C302.149 219.603 301.804 219.528 301.3 219.528H298.836C298.5 219.724 298.332 220.004 298.332 220.368C298.332 220.667 298.448 220.905 298.682 221.082C298.924 221.269 299.33 221.362 299.9 221.362H300.852C302.037 221.362 302.63 221.026 302.63 220.354ZM300.348 215.902C300.796 215.902 301.141 215.804 301.384 215.608C301.636 215.403 301.762 215.09 301.762 214.67V214.39C301.762 213.97 301.636 213.662 301.384 213.466C301.141 213.261 300.796 213.158 300.348 213.158C299.9 213.158 299.55 213.261 299.298 213.466C299.055 213.662 298.934 213.97 298.934 214.39V214.67C298.934 215.09 299.055 215.403 299.298 215.608C299.55 215.804 299.9 215.902 300.348 215.902ZM305.333 219.5V212.22H306.859V213.62H306.929C307.032 213.247 307.246 212.92 307.573 212.64C307.9 212.36 308.352 212.22 308.931 212.22H309.337V213.69H308.735C308.128 213.69 307.662 213.788 307.335 213.984C307.018 214.18 306.859 214.469 306.859 214.852V219.5H305.333ZM316.057 219.5C315.656 219.5 315.348 219.388 315.133 219.164C314.918 218.931 314.788 218.637 314.741 218.282H314.671C314.531 218.739 314.274 219.085 313.901 219.318C313.528 219.551 313.075 219.668 312.543 219.668C311.787 219.668 311.204 219.472 310.793 219.08C310.392 218.688 310.191 218.161 310.191 217.498C310.191 216.77 310.452 216.224 310.975 215.86C311.507 215.496 312.282 215.314 313.299 215.314H314.615V214.698C314.615 214.25 314.494 213.905 314.251 213.662C314.008 213.419 313.63 213.298 313.117 213.298C312.688 213.298 312.338 213.391 312.067 213.578C311.796 213.765 311.568 214.003 311.381 214.292L310.471 213.466C310.714 213.055 311.054 212.719 311.493 212.458C311.932 212.187 312.506 212.052 313.215 212.052C314.158 212.052 314.881 212.271 315.385 212.71C315.889 213.149 316.141 213.779 316.141 214.6V218.254H316.911V219.5H316.057ZM312.977 218.506C313.453 218.506 313.845 218.403 314.153 218.198C314.461 217.983 314.615 217.699 314.615 217.344V216.294H313.327C312.272 216.294 311.745 216.621 311.745 217.274V217.526C311.745 217.853 311.852 218.1 312.067 218.268C312.291 218.427 312.594 218.506 312.977 218.506ZM323.125 218.296H323.055C322.896 218.725 322.635 219.061 322.271 219.304C321.916 219.547 321.496 219.668 321.011 219.668C320.087 219.668 319.373 219.337 318.869 218.674C318.365 218.002 318.113 217.064 318.113 215.86C318.113 214.656 318.365 213.723 318.869 213.06C319.373 212.388 320.087 212.052 321.011 212.052C321.496 212.052 321.916 212.173 322.271 212.416C322.635 212.649 322.896 212.985 323.055 213.424H323.125V209.14H324.651V219.5H323.125V218.296ZM321.473 218.352C321.939 218.352 322.331 218.24 322.649 218.016C322.966 217.783 323.125 217.479 323.125 217.106V214.614C323.125 214.241 322.966 213.942 322.649 213.718C322.331 213.485 321.939 213.368 321.473 213.368C320.941 213.368 320.516 213.541 320.199 213.886C319.881 214.222 319.723 214.67 319.723 215.23V216.49C319.723 217.05 319.881 217.503 320.199 217.848C320.516 218.184 320.941 218.352 321.473 218.352ZM329.828 219.668C329.305 219.668 328.839 219.579 328.428 219.402C328.017 219.225 327.667 218.973 327.378 218.646C327.089 218.31 326.865 217.909 326.706 217.442C326.557 216.966 326.482 216.439 326.482 215.86C326.482 215.281 326.557 214.759 326.706 214.292C326.865 213.816 327.089 213.415 327.378 213.088C327.667 212.752 328.017 212.495 328.428 212.318C328.839 212.141 329.305 212.052 329.828 212.052C330.36 212.052 330.827 212.145 331.228 212.332C331.639 212.519 331.979 212.78 332.25 213.116C332.521 213.443 332.721 213.825 332.852 214.264C332.992 214.703 333.062 215.174 333.062 215.678V216.252H328.064V216.49C328.064 217.05 328.227 217.512 328.554 217.876C328.89 218.231 329.366 218.408 329.982 218.408C330.43 218.408 330.808 218.31 331.116 218.114C331.424 217.918 331.685 217.652 331.9 217.316L332.796 218.198C332.525 218.646 332.133 219.005 331.62 219.276C331.107 219.537 330.509 219.668 329.828 219.668ZM329.828 213.242C329.567 213.242 329.324 213.289 329.1 213.382C328.885 213.475 328.699 213.606 328.54 213.774C328.391 213.942 328.274 214.143 328.19 214.376C328.106 214.609 328.064 214.866 328.064 215.146V215.244H331.452V215.104C331.452 214.544 331.307 214.096 331.018 213.76C330.729 213.415 330.332 213.242 329.828 213.242ZM339.469 218.296H339.399C339.241 218.725 338.979 219.061 338.615 219.304C338.261 219.547 337.841 219.668 337.355 219.668C336.431 219.668 335.717 219.337 335.213 218.674C334.709 218.002 334.457 217.064 334.457 215.86C334.457 214.656 334.709 213.723 335.213 213.06C335.717 212.388 336.431 212.052 337.355 212.052C337.841 212.052 338.261 212.173 338.615 212.416C338.979 212.649 339.241 212.985 339.399 213.424H339.469V209.14H340.995V219.5H339.469V218.296ZM337.817 218.352C338.284 218.352 338.676 218.24 338.993 218.016C339.311 217.783 339.469 217.479 339.469 217.106V214.614C339.469 214.241 339.311 213.942 338.993 213.718C338.676 213.485 338.284 213.368 337.817 213.368C337.285 213.368 336.861 213.541 336.543 213.886C336.226 214.222 336.067 214.67 336.067 215.23V216.49C336.067 217.05 336.226 217.503 336.543 217.848C336.861 218.184 337.285 218.352 337.817 218.352Z" fill="white" fill-opacity="0.98"/>
<path d="M299.487 243.5H293.075V242.296L296.267 239.356C296.724 238.936 297.107 238.493 297.415 238.026C297.723 237.55 297.877 237.074 297.877 236.598V236.43C297.877 235.889 297.728 235.45 297.429 235.114C297.13 234.778 296.678 234.61 296.071 234.61C295.772 234.61 295.511 234.652 295.287 234.736C295.063 234.82 294.867 234.937 294.699 235.086C294.54 235.235 294.405 235.413 294.293 235.618C294.19 235.814 294.106 236.029 294.041 236.262L292.991 235.856C293.084 235.567 293.21 235.287 293.369 235.016C293.537 234.736 293.742 234.489 293.985 234.274C294.237 234.059 294.536 233.887 294.881 233.756C295.236 233.625 295.651 233.56 296.127 233.56C296.603 233.56 297.028 233.63 297.401 233.77C297.774 233.91 298.087 234.106 298.339 234.358C298.591 234.61 298.782 234.909 298.913 235.254C299.053 235.599 299.123 235.982 299.123 236.402C299.123 236.785 299.067 237.139 298.955 237.466C298.852 237.793 298.708 238.105 298.521 238.404C298.334 238.693 298.106 238.978 297.835 239.258C297.574 239.538 297.289 239.818 296.981 240.098L294.349 242.464H299.487V243.5ZM306.794 243.5C306.402 243.5 306.103 243.393 305.898 243.178C305.702 242.954 305.604 242.665 305.604 242.31V237.256H304.414V236.276H305.086C305.329 236.276 305.492 236.229 305.576 236.136C305.669 236.033 305.716 235.861 305.716 235.618V234.274H306.724V236.276H308.306V237.256H306.724V242.52H308.194V243.5H306.794ZM312.922 243.668C312.436 243.668 311.993 243.579 311.592 243.402C311.19 243.225 310.845 242.973 310.556 242.646C310.276 242.31 310.056 241.913 309.898 241.456C309.739 240.989 309.66 240.467 309.66 239.888C309.66 239.319 309.739 238.801 309.898 238.334C310.056 237.867 310.276 237.471 310.556 237.144C310.845 236.808 311.19 236.551 311.592 236.374C311.993 236.197 312.436 236.108 312.922 236.108C313.407 236.108 313.846 236.197 314.238 236.374C314.639 236.551 314.984 236.808 315.274 237.144C315.563 237.471 315.787 237.867 315.946 238.334C316.104 238.801 316.184 239.319 316.184 239.888C316.184 240.467 316.104 240.989 315.946 241.456C315.787 241.913 315.563 242.31 315.274 242.646C314.984 242.973 314.639 243.225 314.238 243.402C313.846 243.579 313.407 243.668 312.922 243.668ZM312.922 242.674C313.528 242.674 314.023 242.487 314.406 242.114C314.788 241.741 314.98 241.171 314.98 240.406V239.37C314.98 238.605 314.788 238.035 314.406 237.662C314.023 237.289 313.528 237.102 312.922 237.102C312.315 237.102 311.82 237.289 311.438 237.662C311.055 238.035 310.864 238.605 310.864 239.37V240.406C310.864 241.171 311.055 241.741 311.438 242.114C311.82 242.487 312.315 242.674 312.922 242.674ZM325.674 243.5V241.582H320.956V240.546L325.044 233.728H326.794V240.602H328.208V241.582H326.794V243.5H325.674ZM322.062 240.602H325.674V234.638H325.604L322.062 240.602Z" fill="#F9FBFF" fill-opacity="0.67"/>
<path d="M395.123 123.5V122.464H397.853V114.596H397.755L395.291 116.892L394.605 116.15L397.195 113.728H399.029V122.464H401.549V123.5H395.123ZM409.398 114.764H405.114L404.834 118.488H404.932C405.165 118.161 405.426 117.9 405.716 117.704C406.014 117.508 406.42 117.41 406.934 117.41C407.354 117.41 407.741 117.48 408.096 117.62C408.45 117.76 408.758 117.961 409.02 118.222C409.281 118.474 409.482 118.787 409.622 119.16C409.771 119.533 409.846 119.958 409.846 120.434C409.846 120.91 409.771 121.349 409.622 121.75C409.472 122.142 409.253 122.483 408.964 122.772C408.684 123.052 408.338 123.271 407.928 123.43C407.526 123.589 407.069 123.668 406.556 123.668C406.145 123.668 405.781 123.621 405.464 123.528C405.156 123.435 404.88 123.309 404.638 123.15C404.395 122.991 404.18 122.814 403.994 122.618C403.816 122.422 403.653 122.217 403.504 122.002L404.386 121.33C404.507 121.526 404.633 121.703 404.764 121.862C404.904 122.021 405.053 122.156 405.212 122.268C405.38 122.38 405.571 122.469 405.786 122.534C406 122.59 406.257 122.618 406.556 122.618C407.228 122.618 407.736 122.441 408.082 122.086C408.427 121.731 408.6 121.232 408.6 120.588V120.448C408.6 119.804 408.427 119.305 408.082 118.95C407.736 118.595 407.228 118.418 406.556 118.418C406.108 118.418 405.753 118.502 405.492 118.67C405.24 118.829 405.011 119.02 404.806 119.244L403.812 119.104L404.162 113.728H409.398V114.764Z" fill="#F9FBFF" fill-opacity="0.67"/>
<rect x="358.92" y="136.5" width="86.8" height="60" rx="4" fill="#EAB308"/>
<path d="M391.228 219.5V209.728H397.332V211.128H392.81V213.844H396.828V215.244H392.81V219.5H391.228ZM404.014 219.5C403.613 219.5 403.305 219.388 403.09 219.164C402.875 218.931 402.745 218.637 402.698 218.282H402.628C402.488 218.739 402.231 219.085 401.858 219.318C401.485 219.551 401.032 219.668 400.5 219.668C399.744 219.668 399.161 219.472 398.75 219.08C398.349 218.688 398.148 218.161 398.148 217.498C398.148 216.77 398.409 216.224 398.932 215.86C399.464 215.496 400.239 215.314 401.256 215.314H402.572V214.698C402.572 214.25 402.451 213.905 402.208 213.662C401.965 213.419 401.587 213.298 401.074 213.298C400.645 213.298 400.295 213.391 400.024 213.578C399.753 213.765 399.525 214.003 399.338 214.292L398.428 213.466C398.671 213.055 399.011 212.719 399.45 212.458C399.889 212.187 400.463 212.052 401.172 212.052C402.115 212.052 402.838 212.271 403.342 212.71C403.846 213.149 404.098 213.779 404.098 214.6V218.254H404.868V219.5H404.014ZM400.934 218.506C401.41 218.506 401.802 218.403 402.11 218.198C402.418 217.983 402.572 217.699 402.572 217.344V216.294H401.284C400.229 216.294 399.702 216.621 399.702 217.274V217.526C399.702 217.853 399.809 218.1 400.024 218.268C400.248 218.427 400.551 218.506 400.934 218.506ZM407.274 210.918C406.956 210.918 406.723 210.843 406.574 210.694C406.434 210.545 406.364 210.353 406.364 210.12V209.882C406.364 209.649 406.434 209.457 406.574 209.308C406.723 209.159 406.956 209.084 407.274 209.084C407.591 209.084 407.82 209.159 407.96 209.308C408.1 209.457 408.17 209.649 408.17 209.882V210.12C408.17 210.353 408.1 210.545 407.96 210.694C407.82 210.843 407.591 210.918 407.274 210.918ZM406.504 212.22H408.03V219.5H406.504V212.22ZM410.349 219.5V212.22H411.875V213.62H411.945C412.047 213.247 412.262 212.92 412.589 212.64C412.915 212.36 413.368 212.22 413.947 212.22H414.353V213.69H413.751C413.144 213.69 412.677 213.788 412.351 213.984C412.033 214.18 411.875 214.469 411.875 214.852V219.5H410.349Z" fill="white" fill-opacity="0.98"/>
<path d="M389.07 243.5V241.582H384.352V240.546L388.44 233.728H390.19V240.602H391.604V241.582H390.19V243.5H389.07ZM385.458 240.602H389.07V234.638H389L385.458 240.602ZM398.589 243.5C398.197 243.5 397.898 243.393 397.693 243.178C397.497 242.954 397.399 242.665 397.399 242.31V237.256H396.209V236.276H396.881C397.124 236.276 397.287 236.229 397.371 236.136C397.464 236.033 397.511 235.861 397.511 235.618V234.274H398.519V236.276H400.101V237.256H398.519V242.52H399.989V243.5H398.589ZM404.717 243.668C404.231 243.668 403.788 243.579 403.387 243.402C402.985 243.225 402.64 242.973 402.351 242.646C402.071 242.31 401.851 241.913 401.693 241.456C401.534 240.989 401.455 240.467 401.455 239.888C401.455 239.319 401.534 238.801 401.693 238.334C401.851 237.867 402.071 237.471 402.351 237.144C402.64 236.808 402.985 236.551 403.387 236.374C403.788 236.197 404.231 236.108 404.717 236.108C405.202 236.108 405.641 236.197 406.033 236.374C406.434 236.551 406.779 236.808 407.069 237.144C407.358 237.471 407.582 237.867 407.741 238.334C407.899 238.801 407.979 239.319 407.979 239.888C407.979 240.467 407.899 240.989 407.741 241.456C407.582 241.913 407.358 242.31 407.069 242.646C406.779 242.973 406.434 243.225 406.033 243.402C405.641 243.579 405.202 243.668 404.717 243.668ZM404.717 242.674C405.323 242.674 405.818 242.487 406.201 242.114C406.583 241.741 406.775 241.171 406.775 240.406V239.37C406.775 238.605 406.583 238.035 406.201 237.662C405.818 237.289 405.323 237.102 404.717 237.102C404.11 237.102 403.615 237.289 403.233 237.662C402.85 238.035 402.659 238.605 402.659 239.37V240.406C402.659 241.171 402.85 241.741 403.233 242.114C403.615 242.487 404.11 242.674 404.717 242.674ZM416.433 243.668C415.929 243.668 415.472 243.584 415.061 243.416C414.66 243.239 414.315 242.991 414.025 242.674C413.745 242.347 413.531 241.951 413.381 241.484C413.232 241.017 413.157 240.495 413.157 239.916C413.157 239.188 413.265 238.507 413.479 237.872C413.694 237.228 413.969 236.645 414.305 236.122C414.651 235.59 415.029 235.123 415.439 234.722C415.85 234.311 416.251 233.98 416.643 233.728H418.155C417.633 234.111 417.166 234.484 416.755 234.848C416.345 235.212 415.985 235.595 415.677 235.996C415.369 236.388 415.108 236.813 414.893 237.27C414.679 237.718 414.506 238.227 414.375 238.796L414.445 238.824C414.679 238.423 414.977 238.091 415.341 237.83C415.715 237.559 416.2 237.424 416.797 237.424C417.217 237.424 417.605 237.494 417.959 237.634C418.314 237.774 418.617 237.975 418.869 238.236C419.121 238.497 419.317 238.815 419.457 239.188C419.607 239.561 419.681 239.977 419.681 240.434C419.681 240.91 419.602 241.349 419.443 241.75C419.294 242.142 419.075 242.483 418.785 242.772C418.505 243.052 418.165 243.271 417.763 243.43C417.362 243.589 416.919 243.668 416.433 243.668ZM416.419 242.646C417.063 242.646 417.563 242.469 417.917 242.114C418.281 241.759 418.463 241.251 418.463 240.588V240.476C418.463 239.813 418.281 239.305 417.917 238.95C417.563 238.595 417.063 238.418 416.419 238.418C415.775 238.418 415.271 238.595 414.907 238.95C414.553 239.305 414.375 239.813 414.375 240.476V240.588C414.375 241.251 414.553 241.759 414.907 242.114C415.271 242.469 415.775 242.646 416.419 242.646Z" fill="#F9FBFF" fill-opacity="0.67"/>
<path d="M492.663 6.264H488.379L488.099 9.988H488.197C488.43 9.66133 488.692 9.4 488.981 9.204C489.28 9.008 489.686 8.91 490.199 8.91C490.619 8.91 491.006 8.98 491.361 9.12C491.716 9.26 492.024 9.46067 492.285 9.722C492.546 9.974 492.747 10.2867 492.887 10.66C493.036 11.0333 493.111 11.458 493.111 11.934C493.111 12.41 493.036 12.8487 492.887 13.25C492.738 13.642 492.518 13.9827 492.229 14.272C491.949 14.552 491.604 14.7713 491.193 14.93C490.792 15.0887 490.334 15.168 489.821 15.168C489.41 15.168 489.046 15.1213 488.729 15.028C488.421 14.9347 488.146 14.8087 487.903 14.65C487.66 14.4913 487.446 14.314 487.259 14.118C487.082 13.922 486.918 13.7167 486.769 13.502L487.651 12.83C487.772 13.026 487.898 13.2033 488.029 13.362C488.169 13.5207 488.318 13.656 488.477 13.768C488.645 13.88 488.836 13.9687 489.051 14.034C489.266 14.09 489.522 14.118 489.821 14.118C490.493 14.118 491.002 13.9407 491.347 13.586C491.692 13.2313 491.865 12.732 491.865 12.088V11.948C491.865 11.304 491.692 10.8047 491.347 10.45C491.002 10.0953 490.493 9.918 489.821 9.918C489.373 9.918 489.018 10.002 488.757 10.17C488.505 10.3287 488.276 10.52 488.071 10.744L487.077 10.604L487.427 5.228H492.663V6.264ZM495.457 15V13.964H498.187V6.096H498.089L495.625 8.392L494.939 7.65L497.529 5.228H499.363V13.964H501.883V15H495.457Z" fill="#F9FBFF" fill-opacity="0.67"/>
<rect x="450.72" y="28" width="86.8" height="169" rx="4" fill="#24C335"/>
<path d="M484.42 218.516H484.364C484.261 218.992 483.981 219.389 483.524 219.706C483.076 220.014 482.478 220.168 481.732 220.168C481.153 220.168 480.616 220.061 480.122 219.846C479.627 219.622 479.198 219.3 478.834 218.88C478.479 218.451 478.199 217.923 477.994 217.298C477.798 216.663 477.7 215.935 477.7 215.114C477.7 214.302 477.802 213.583 478.008 212.958C478.213 212.323 478.502 211.791 478.876 211.362C479.249 210.933 479.697 210.611 480.22 210.396C480.742 210.172 481.326 210.06 481.97 210.06C482.847 210.06 483.589 210.256 484.196 210.648C484.802 211.031 485.274 211.567 485.61 212.258L484.322 213.014C484.135 212.557 483.846 212.188 483.454 211.908C483.062 211.619 482.567 211.474 481.97 211.474C481.195 211.474 480.57 211.721 480.094 212.216C479.627 212.711 479.394 213.411 479.394 214.316V215.912C479.394 216.817 479.627 217.517 480.094 218.012C480.57 218.507 481.195 218.754 481.97 218.754C482.278 218.754 482.572 218.717 482.852 218.642C483.132 218.558 483.374 218.441 483.58 218.292C483.794 218.133 483.962 217.942 484.084 217.718C484.214 217.485 484.28 217.214 484.28 216.906V216.15H482.264V214.792H485.806V220H484.42V218.516ZM490.889 220.168C490.385 220.168 489.923 220.079 489.503 219.902C489.092 219.725 488.742 219.473 488.453 219.146C488.163 218.81 487.939 218.409 487.781 217.942C487.622 217.466 487.543 216.939 487.543 216.36C487.543 215.781 487.622 215.259 487.781 214.792C487.939 214.316 488.163 213.915 488.453 213.588C488.742 213.252 489.092 212.995 489.503 212.818C489.923 212.641 490.385 212.552 490.889 212.552C491.393 212.552 491.85 212.641 492.261 212.818C492.681 212.995 493.035 213.252 493.325 213.588C493.614 213.915 493.838 214.316 493.997 214.792C494.155 215.259 494.235 215.781 494.235 216.36C494.235 216.939 494.155 217.466 493.997 217.942C493.838 218.409 493.614 218.81 493.325 219.146C493.035 219.473 492.681 219.725 492.261 219.902C491.85 220.079 491.393 220.168 490.889 220.168ZM490.889 218.908C491.411 218.908 491.831 218.749 492.149 218.432C492.466 218.105 492.625 217.62 492.625 216.976V215.744C492.625 215.1 492.466 214.619 492.149 214.302C491.831 213.975 491.411 213.812 490.889 213.812C490.366 213.812 489.946 213.975 489.629 214.302C489.311 214.619 489.153 215.1 489.153 215.744V216.976C489.153 217.62 489.311 218.105 489.629 218.432C489.946 218.749 490.366 218.908 490.889 218.908ZM498.931 220.168C498.427 220.168 497.965 220.079 497.545 219.902C497.134 219.725 496.784 219.473 496.495 219.146C496.206 218.81 495.982 218.409 495.823 217.942C495.664 217.466 495.585 216.939 495.585 216.36C495.585 215.781 495.664 215.259 495.823 214.792C495.982 214.316 496.206 213.915 496.495 213.588C496.784 213.252 497.134 212.995 497.545 212.818C497.965 212.641 498.427 212.552 498.931 212.552C499.435 212.552 499.892 212.641 500.303 212.818C500.723 212.995 501.078 213.252 501.367 213.588C501.656 213.915 501.88 214.316 502.039 214.792C502.198 215.259 502.277 215.781 502.277 216.36C502.277 216.939 502.198 217.466 502.039 217.942C501.88 218.409 501.656 218.81 501.367 219.146C501.078 219.473 500.723 219.725 500.303 219.902C499.892 220.079 499.435 220.168 498.931 220.168ZM498.931 218.908C499.454 218.908 499.874 218.749 500.191 218.432C500.508 218.105 500.667 217.62 500.667 216.976V215.744C500.667 215.1 500.508 214.619 500.191 214.302C499.874 213.975 499.454 213.812 498.931 213.812C498.408 213.812 497.988 213.975 497.671 214.302C497.354 214.619 497.195 215.1 497.195 215.744V216.976C497.195 217.62 497.354 218.105 497.671 218.432C497.988 218.749 498.408 218.908 498.931 218.908ZM508.695 218.796H508.625C508.467 219.225 508.205 219.561 507.841 219.804C507.487 220.047 507.067 220.168 506.581 220.168C505.657 220.168 504.943 219.837 504.439 219.174C503.935 218.502 503.683 217.564 503.683 216.36C503.683 215.156 503.935 214.223 504.439 213.56C504.943 212.888 505.657 212.552 506.581 212.552C507.067 212.552 507.487 212.673 507.841 212.916C508.205 213.149 508.467 213.485 508.625 213.924H508.695V209.64H510.221V220H508.695V218.796ZM507.043 218.852C507.51 218.852 507.902 218.74 508.219 218.516C508.537 218.283 508.695 217.979 508.695 217.606V215.114C508.695 214.741 508.537 214.442 508.219 214.218C507.902 213.985 507.51 213.868 507.043 213.868C506.511 213.868 506.087 214.041 505.769 214.386C505.452 214.722 505.293 215.17 505.293 215.73V216.99C505.293 217.55 505.452 218.003 505.769 218.348C506.087 218.684 506.511 218.852 507.043 218.852Z" fill="white" fill-opacity="0.98"/>
<path d="M479.834 244.168C479.33 244.168 478.873 244.084 478.462 243.916C478.061 243.739 477.715 243.491 477.426 243.174C477.146 242.847 476.931 242.451 476.782 241.984C476.633 241.517 476.558 240.995 476.558 240.416C476.558 239.688 476.665 239.007 476.88 238.372C477.095 237.728 477.37 237.145 477.706 236.622C478.051 236.09 478.429 235.623 478.84 235.222C479.251 234.811 479.652 234.48 480.044 234.228H481.556C481.033 234.611 480.567 234.984 480.156 235.348C479.745 235.712 479.386 236.095 479.078 236.496C478.77 236.888 478.509 237.313 478.294 237.77C478.079 238.218 477.907 238.727 477.776 239.296L477.846 239.324C478.079 238.923 478.378 238.591 478.742 238.33C479.115 238.059 479.601 237.924 480.198 237.924C480.618 237.924 481.005 237.994 481.36 238.134C481.715 238.274 482.018 238.475 482.27 238.736C482.522 238.997 482.718 239.315 482.858 239.688C483.007 240.061 483.082 240.477 483.082 240.934C483.082 241.41 483.003 241.849 482.844 242.25C482.695 242.642 482.475 242.983 482.186 243.272C481.906 243.552 481.565 243.771 481.164 243.93C480.763 244.089 480.319 244.168 479.834 244.168ZM479.82 243.146C480.464 243.146 480.963 242.969 481.318 242.614C481.682 242.259 481.864 241.751 481.864 241.088V240.976C481.864 240.313 481.682 239.805 481.318 239.45C480.963 239.095 480.464 238.918 479.82 238.918C479.176 238.918 478.672 239.095 478.308 239.45C477.953 239.805 477.776 240.313 477.776 240.976V241.088C477.776 241.751 477.953 242.259 478.308 242.614C478.672 242.969 479.176 243.146 479.82 243.146ZM490.389 244C489.997 244 489.698 243.893 489.493 243.678C489.297 243.454 489.199 243.165 489.199 242.81V237.756H488.009V236.776H488.681C488.924 236.776 489.087 236.729 489.171 236.636C489.264 236.533 489.311 236.361 489.311 236.118V234.774H490.319V236.776H491.901V237.756H490.319V243.02H491.789V244H490.389ZM496.517 244.168C496.031 244.168 495.588 244.079 495.187 243.902C494.785 243.725 494.44 243.473 494.151 243.146C493.871 242.81 493.651 242.413 493.493 241.956C493.334 241.489 493.255 240.967 493.255 240.388C493.255 239.819 493.334 239.301 493.493 238.834C493.651 238.367 493.871 237.971 494.151 237.644C494.44 237.308 494.785 237.051 495.187 236.874C495.588 236.697 496.031 236.608 496.517 236.608C497.002 236.608 497.441 236.697 497.833 236.874C498.234 237.051 498.579 237.308 498.869 237.644C499.158 237.971 499.382 238.367 499.541 238.834C499.699 239.301 499.779 239.819 499.779 240.388C499.779 240.967 499.699 241.489 499.541 241.956C499.382 242.413 499.158 242.81 498.869 243.146C498.579 243.473 498.234 243.725 497.833 243.902C497.441 244.079 497.002 244.168 496.517 244.168ZM496.517 243.174C497.123 243.174 497.618 242.987 498.001 242.614C498.383 242.241 498.575 241.671 498.575 240.906V239.87C498.575 239.105 498.383 238.535 498.001 238.162C497.618 237.789 497.123 237.602 496.517 237.602C495.91 237.602 495.415 237.789 495.033 238.162C494.65 238.535 494.459 239.105 494.459 239.87V240.906C494.459 241.671 494.65 242.241 495.033 242.614C495.415 242.987 495.91 243.174 496.517 243.174ZM508.219 244.168C507.659 244.168 507.169 244.098 506.749 243.958C506.329 243.809 505.975 243.608 505.685 243.356C505.405 243.104 505.191 242.805 505.041 242.46C504.901 242.115 504.831 241.741 504.831 241.34C504.831 240.668 505.013 240.136 505.377 239.744C505.741 239.352 506.217 239.077 506.805 238.918V238.806C506.292 238.629 505.881 238.344 505.573 237.952C505.275 237.551 505.125 237.07 505.125 236.51C505.125 235.763 505.396 235.171 505.937 234.732C506.479 234.284 507.239 234.06 508.219 234.06C509.199 234.06 509.96 234.284 510.501 234.732C511.043 235.171 511.313 235.763 511.313 236.51C511.313 237.07 511.159 237.551 510.851 237.952C510.553 238.344 510.147 238.629 509.633 238.806V238.918C510.221 239.077 510.697 239.352 511.061 239.744C511.425 240.136 511.607 240.668 511.607 241.34C511.607 241.741 511.533 242.115 511.383 242.46C511.243 242.805 511.029 243.104 510.739 243.356C510.459 243.608 510.109 243.809 509.689 243.958C509.269 244.098 508.779 244.168 508.219 244.168ZM508.219 243.146C508.901 243.146 509.428 242.997 509.801 242.698C510.175 242.39 510.361 241.956 510.361 241.396V241.102C510.361 240.542 510.175 240.113 509.801 239.814C509.428 239.506 508.901 239.352 508.219 239.352C507.538 239.352 507.011 239.506 506.637 239.814C506.264 240.113 506.077 240.542 506.077 241.102V241.396C506.077 241.956 506.264 242.39 506.637 242.698C507.011 242.997 507.538 243.146 508.219 243.146ZM508.219 238.372C508.835 238.372 509.302 238.241 509.619 237.98C509.937 237.719 510.095 237.336 510.095 236.832V236.622C510.095 236.118 509.937 235.735 509.619 235.474C509.302 235.213 508.835 235.082 508.219 235.082C507.603 235.082 507.137 235.213 506.819 235.474C506.502 235.735 506.343 236.118 506.343 236.622V236.832C506.343 237.336 506.502 237.719 506.819 237.98C507.137 238.241 507.603 238.372 508.219 238.372Z" fill="#F9FBFF" fill-opacity="0.67"/>
<path d="M584.948 142.5H578.536V141.296L581.728 138.356C582.185 137.936 582.568 137.493 582.876 137.026C583.184 136.55 583.338 136.074 583.338 135.598V135.43C583.338 134.889 583.189 134.45 582.89 134.114C582.591 133.778 582.139 133.61 581.532 133.61C581.233 133.61 580.972 133.652 580.748 133.736C580.524 133.82 580.328 133.937 580.16 134.086C580.001 134.235 579.866 134.413 579.754 134.618C579.651 134.814 579.567 135.029 579.502 135.262L578.452 134.856C578.545 134.567 578.671 134.287 578.83 134.016C578.998 133.736 579.203 133.489 579.446 133.274C579.698 133.059 579.997 132.887 580.342 132.756C580.697 132.625 581.112 132.56 581.588 132.56C582.064 132.56 582.489 132.63 582.862 132.77C583.235 132.91 583.548 133.106 583.8 133.358C584.052 133.61 584.243 133.909 584.374 134.254C584.514 134.599 584.584 134.982 584.584 135.402C584.584 135.785 584.528 136.139 584.416 136.466C584.313 136.793 584.169 137.105 583.982 137.404C583.795 137.693 583.567 137.978 583.296 138.258C583.035 138.538 582.75 138.818 582.442 139.098L579.81 141.464H584.948V142.5ZM589.674 136.872C590.337 136.872 590.832 136.723 591.158 136.424C591.494 136.116 591.662 135.724 591.662 135.248V135.15C591.662 134.637 591.499 134.254 591.172 134.002C590.855 133.741 590.435 133.61 589.912 133.61C589.408 133.61 588.998 133.722 588.68 133.946C588.363 134.161 588.102 134.455 587.896 134.828L587.028 134.156C587.15 133.96 587.294 133.769 587.462 133.582C587.64 133.386 587.845 133.213 588.078 133.064C588.312 132.915 588.582 132.793 588.89 132.7C589.198 132.607 589.548 132.56 589.94 132.56C590.351 132.56 590.738 132.616 591.102 132.728C591.466 132.831 591.779 132.989 592.04 133.204C592.311 133.409 592.521 133.666 592.67 133.974C592.829 134.282 592.908 134.632 592.908 135.024C592.908 135.341 592.857 135.626 592.754 135.878C592.661 136.13 592.53 136.349 592.362 136.536C592.194 136.723 591.994 136.881 591.76 137.012C591.536 137.143 591.294 137.241 591.032 137.306V137.362C591.294 137.418 591.546 137.511 591.788 137.642C592.04 137.763 592.26 137.927 592.446 138.132C592.642 138.328 592.796 138.571 592.908 138.86C593.03 139.14 593.09 139.462 593.09 139.826C593.09 140.246 593.011 140.633 592.852 140.988C592.694 141.333 592.47 141.632 592.18 141.884C591.891 142.127 591.541 142.318 591.13 142.458C590.72 142.598 590.267 142.668 589.772 142.668C589.352 142.668 588.979 142.621 588.652 142.528C588.326 142.435 588.036 142.309 587.784 142.15C587.532 141.991 587.308 141.814 587.112 141.618C586.926 141.422 586.758 141.217 586.608 141.002L587.49 140.33C587.612 140.526 587.742 140.703 587.882 140.862C588.032 141.021 588.195 141.156 588.372 141.268C588.55 141.38 588.75 141.469 588.974 141.534C589.198 141.59 589.46 141.618 589.758 141.618C590.449 141.618 590.972 141.464 591.326 141.156C591.681 140.839 591.858 140.391 591.858 139.812V139.7C591.858 139.121 591.681 138.678 591.326 138.37C590.972 138.053 590.449 137.894 589.758 137.894H588.61V136.872H589.674Z" fill="#F9FBFF" fill-opacity="0.67"/>
<rect x="542.52" y="155.5" width="86.79" height="41" rx="4" fill="#3AD199"/>
<path d="M564.974 219.668C564.339 219.668 563.761 219.561 563.238 219.346C562.725 219.122 562.281 218.8 561.908 218.38C561.544 217.951 561.259 217.423 561.054 216.798C560.858 216.163 560.76 215.435 560.76 214.614C560.76 213.793 560.858 213.069 561.054 212.444C561.259 211.809 561.544 211.282 561.908 210.862C562.281 210.433 562.725 210.111 563.238 209.896C563.761 209.672 564.339 209.56 564.974 209.56C565.609 209.56 566.183 209.672 566.696 209.896C567.219 210.111 567.662 210.433 568.026 210.862C568.399 211.282 568.684 211.809 568.88 212.444C569.085 213.069 569.188 213.793 569.188 214.614C569.188 215.435 569.085 216.163 568.88 216.798C568.684 217.423 568.399 217.951 568.026 218.38C567.662 218.8 567.219 219.122 566.696 219.346C566.183 219.561 565.609 219.668 564.974 219.668ZM564.974 218.254C565.347 218.254 565.688 218.189 565.996 218.058C566.313 217.927 566.579 217.741 566.794 217.498C567.018 217.246 567.191 216.943 567.312 216.588C567.433 216.233 567.494 215.832 567.494 215.384V213.844C567.494 213.396 567.433 212.995 567.312 212.64C567.191 212.285 567.018 211.987 566.794 211.744C566.579 211.492 566.313 211.301 565.996 211.17C565.688 211.039 565.347 210.974 564.974 210.974C564.591 210.974 564.246 211.039 563.938 211.17C563.63 211.301 563.364 211.492 563.14 211.744C562.925 211.987 562.757 212.285 562.636 212.64C562.515 212.995 562.454 213.396 562.454 213.844V215.384C562.454 215.832 562.515 216.233 562.636 216.588C562.757 216.943 562.925 217.246 563.14 217.498C563.364 217.741 563.63 217.927 563.938 218.058C564.246 218.189 564.591 218.254 564.974 218.254ZM571.189 212.22H572.715V213.424H572.785C572.944 212.985 573.2 212.649 573.555 212.416C573.919 212.173 574.344 212.052 574.829 212.052C575.753 212.052 576.467 212.388 576.971 213.06C577.475 213.723 577.727 214.656 577.727 215.86C577.727 217.064 577.475 218.002 576.971 218.674C576.467 219.337 575.753 219.668 574.829 219.668C574.344 219.668 573.919 219.547 573.555 219.304C573.2 219.061 572.944 218.725 572.785 218.296H572.715V222.3H571.189V212.22ZM574.367 218.352C574.899 218.352 575.324 218.184 575.641 217.848C575.958 217.503 576.117 217.05 576.117 216.49V215.23C576.117 214.67 575.958 214.222 575.641 213.886C575.324 213.541 574.899 213.368 574.367 213.368C573.9 213.368 573.508 213.485 573.191 213.718C572.874 213.942 572.715 214.241 572.715 214.614V217.106C572.715 217.479 572.874 217.783 573.191 218.016C573.508 218.24 573.9 218.352 574.367 218.352ZM581.548 219.5C581.016 219.5 580.615 219.365 580.344 219.094C580.073 218.814 579.938 218.422 579.938 217.918V213.466H578.804V212.22H579.42C579.672 212.22 579.845 212.164 579.938 212.052C580.041 211.94 580.092 211.758 580.092 211.506V210.232H581.464V212.22H582.99V213.466H581.464V218.254H582.878V219.5H581.548ZM585.555 210.918C585.238 210.918 585.005 210.843 584.855 210.694C584.715 210.545 584.645 210.353 584.645 210.12V209.882C584.645 209.649 584.715 209.457 584.855 209.308C585.005 209.159 585.238 209.084 585.555 209.084C585.873 209.084 586.101 209.159 586.241 209.308C586.381 209.457 586.451 209.649 586.451 209.882V210.12C586.451 210.353 586.381 210.545 586.241 210.694C586.101 210.843 585.873 210.918 585.555 210.918ZM584.785 212.22H586.311V219.5H584.785V212.22ZM588.63 219.5V212.22H590.156V213.424H590.226C590.301 213.237 590.39 213.06 590.492 212.892C590.604 212.724 590.735 212.579 590.884 212.458C591.043 212.327 591.225 212.229 591.43 212.164C591.645 212.089 591.892 212.052 592.172 212.052C592.667 212.052 593.106 212.173 593.488 212.416C593.871 212.659 594.151 213.032 594.328 213.536H594.37C594.501 213.125 594.753 212.775 595.126 212.486C595.5 212.197 595.98 212.052 596.568 212.052C597.296 212.052 597.861 212.299 598.262 212.794C598.664 213.279 598.864 213.975 598.864 214.88V219.5H597.338V215.062C597.338 214.502 597.231 214.082 597.016 213.802C596.802 213.513 596.461 213.368 595.994 213.368C595.798 213.368 595.612 213.396 595.434 213.452C595.257 213.499 595.098 213.573 594.958 213.676C594.828 213.779 594.72 213.909 594.636 214.068C594.552 214.227 594.51 214.409 594.51 214.614V219.5H592.984V215.062C592.984 213.933 592.541 213.368 591.654 213.368C591.468 213.368 591.281 213.396 591.094 213.452C590.917 213.499 590.758 213.573 590.618 213.676C590.478 213.779 590.366 213.909 590.282 214.068C590.198 214.227 590.156 214.409 590.156 214.614V219.5H588.63ZM606.45 219.5C606.049 219.5 605.741 219.388 605.526 219.164C605.311 218.931 605.181 218.637 605.134 218.282H605.064C604.924 218.739 604.667 219.085 604.294 219.318C603.921 219.551 603.468 219.668 602.936 219.668C602.18 219.668 601.597 219.472 601.186 219.08C600.785 218.688 600.584 218.161 600.584 217.498C600.584 216.77 600.845 216.224 601.368 215.86C601.9 215.496 602.675 215.314 603.692 215.314H605.008V214.698C605.008 214.25 604.887 213.905 604.644 213.662C604.401 213.419 604.023 213.298 603.51 213.298C603.081 213.298 602.731 213.391 602.46 213.578C602.189 213.765 601.961 214.003 601.774 214.292L600.864 213.466C601.107 213.055 601.447 212.719 601.886 212.458C602.325 212.187 602.899 212.052 603.608 212.052C604.551 212.052 605.274 212.271 605.778 212.71C606.282 213.149 606.534 213.779 606.534 214.6V218.254H607.304V219.5H606.45ZM603.37 218.506C603.846 218.506 604.238 218.403 604.546 218.198C604.854 217.983 605.008 217.699 605.008 217.344V216.294H603.72C602.665 216.294 602.138 216.621 602.138 217.274V217.526C602.138 217.853 602.245 218.1 602.46 218.268C602.684 218.427 602.987 218.506 603.37 218.506ZM610.494 219.5C609.971 219.5 609.579 219.369 609.318 219.108C609.066 218.837 608.94 218.464 608.94 217.988V209.14H610.466V218.254H611.474V219.5H610.494Z" fill="white" fill-opacity="0.98"/>
<path d="M567.115 243.668C566.555 243.668 566.065 243.598 565.645 243.458C565.225 243.309 564.87 243.108 564.581 242.856C564.301 242.604 564.086 242.305 563.937 241.96C563.797 241.615 563.727 241.241 563.727 240.84C563.727 240.168 563.909 239.636 564.273 239.244C564.637 238.852 565.113 238.577 565.701 238.418V238.306C565.188 238.129 564.777 237.844 564.469 237.452C564.17 237.051 564.021 236.57 564.021 236.01C564.021 235.263 564.292 234.671 564.833 234.232C565.374 233.784 566.135 233.56 567.115 233.56C568.095 233.56 568.856 233.784 569.397 234.232C569.938 234.671 570.209 235.263 570.209 236.01C570.209 236.57 570.055 237.051 569.747 237.452C569.448 237.844 569.042 238.129 568.529 238.306V238.418C569.117 238.577 569.593 238.852 569.957 239.244C570.321 239.636 570.503 240.168 570.503 240.84C570.503 241.241 570.428 241.615 570.279 241.96C570.139 242.305 569.924 242.604 569.635 242.856C569.355 243.108 569.005 243.309 568.585 243.458C568.165 243.598 567.675 243.668 567.115 243.668ZM567.115 242.646C567.796 242.646 568.324 242.497 568.697 242.198C569.07 241.89 569.257 241.456 569.257 240.896V240.602C569.257 240.042 569.07 239.613 568.697 239.314C568.324 239.006 567.796 238.852 567.115 238.852C566.434 238.852 565.906 239.006 565.533 239.314C565.16 239.613 564.973 240.042 564.973 240.602V240.896C564.973 241.456 565.16 241.89 565.533 242.198C565.906 242.497 566.434 242.646 567.115 242.646ZM567.115 237.872C567.731 237.872 568.198 237.741 568.515 237.48C568.832 237.219 568.991 236.836 568.991 236.332V236.122C568.991 235.618 568.832 235.235 568.515 234.974C568.198 234.713 567.731 234.582 567.115 234.582C566.499 234.582 566.032 234.713 565.715 234.974C565.398 235.235 565.239 235.618 565.239 236.122V236.332C565.239 236.836 565.398 237.219 565.715 237.48C566.032 237.741 566.499 237.872 567.115 237.872ZM577.684 243.5C577.292 243.5 576.993 243.393 576.788 243.178C576.592 242.954 576.494 242.665 576.494 242.31V237.256H575.304V236.276H575.976C576.219 236.276 576.382 236.229 576.466 236.136C576.559 236.033 576.606 235.861 576.606 235.618V234.274H577.614V236.276H579.196V237.256H577.614V242.52H579.084V243.5H577.684ZM583.812 243.668C583.326 243.668 582.883 243.579 582.482 243.402C582.08 243.225 581.735 242.973 581.446 242.646C581.166 242.31 580.946 241.913 580.788 241.456C580.629 240.989 580.55 240.467 580.55 239.888C580.55 239.319 580.629 238.801 580.788 238.334C580.946 237.867 581.166 237.471 581.446 237.144C581.735 236.808 582.08 236.551 582.482 236.374C582.883 236.197 583.326 236.108 583.812 236.108C584.297 236.108 584.736 236.197 585.128 236.374C585.529 236.551 585.874 236.808 586.164 237.144C586.453 237.471 586.677 237.867 586.836 238.334C586.994 238.801 587.074 239.319 587.074 239.888C587.074 240.467 586.994 240.989 586.836 241.456C586.677 241.913 586.453 242.31 586.164 242.646C585.874 242.973 585.529 243.225 585.128 243.402C584.736 243.579 584.297 243.668 583.812 243.668ZM583.812 242.674C584.418 242.674 584.913 242.487 585.296 242.114C585.678 241.741 585.87 241.171 585.87 240.406V239.37C585.87 238.605 585.678 238.035 585.296 237.662C584.913 237.289 584.418 237.102 583.812 237.102C583.205 237.102 582.71 237.289 582.328 237.662C581.945 238.035 581.754 238.605 581.754 239.37V240.406C581.754 241.171 581.945 241.741 582.328 242.114C582.71 242.487 583.205 242.674 583.812 242.674ZM592.546 243.5V242.464H595.276V234.596H595.178L592.714 236.892L592.028 236.15L594.618 233.728H596.452V242.464H598.972V243.5H592.546ZM604.049 243.668C602.882 243.668 602.028 243.225 601.487 242.338C600.955 241.451 600.689 240.21 600.689 238.614C600.689 237.018 600.955 235.777 601.487 234.89C602.028 234.003 602.882 233.56 604.049 233.56C605.215 233.56 606.065 234.003 606.597 234.89C607.138 235.777 607.409 237.018 607.409 238.614C607.409 240.21 607.138 241.451 606.597 242.338C606.065 243.225 605.215 243.668 604.049 243.668ZM604.049 242.646C604.431 242.646 604.758 242.567 605.029 242.408C605.299 242.249 605.519 242.025 605.687 241.736C605.855 241.447 605.976 241.106 606.051 240.714C606.135 240.322 606.177 239.888 606.177 239.412V237.816C606.177 237.34 606.135 236.906 606.051 236.514C605.976 236.122 605.855 235.781 605.687 235.492C605.519 235.203 605.299 234.979 605.029 234.82C604.758 234.661 604.431 234.582 604.049 234.582C603.666 234.582 603.339 234.661 603.069 234.82C602.798 234.979 602.579 235.203 602.411 235.492C602.243 235.781 602.117 236.122 602.033 236.514C601.958 236.906 601.921 237.34 601.921 237.816V239.412C601.921 239.888 601.958 240.322 602.033 240.714C602.117 241.106 602.243 241.447 602.411 241.736C602.579 242.025 602.798 242.249 603.069 242.408C603.339 242.567 603.666 242.646 604.049 242.646Z" fill="#F9FBFF" fill-opacity="0.67"/>
</svg>
